<svg width="111" height="39" viewBox="0 0 111 39" fill="none" xmlns="http://www.w3.org/2000/svg">
<path d="M31.7995 24.839C31.7995 24.839 31.0873 33.0615 30.9348 34.489H33.3764C33.3764 34.489 33.6816 32.2621 34.3428 25.9239C34.4446 24.7818 34.6481 22.4979 34.6481 22.4979L31.8504 24.839H31.7995Z" fill="#2AB794"/>
<path d="M25.1358 3.71158C28.2895 2.85506 30.5277 4.45389 31.545 11.5344C31.8503 13.5901 31.9519 15.9312 32.0028 18.2724C32.9694 17.4158 33.8849 16.6164 34.6988 15.817C34.5971 13.0191 34.3427 10.2782 33.8341 7.76575C32.715 2.34114 29.663 0 26.4583 0C26.0514 0 25.5936 0.0571011 25.1358 0.114203V3.65447V3.71158Z" fill="#2AB794"/>
<path d="M26.5018 0.0570068C22.8394 0.0570068 16.1758 3.59727 9.46132 11.7627C1.83122 21.0131 0 28.3221 0 32.1479C0 35.9736 2.28903 39 6.40927 39C10.5295 39 17.1423 36.0878 26.9596 28.6646C36.7771 21.2415 46.2893 11.9912 46.2893 11.9912L44.2545 6.73784C42.1181 8.62218 32.8603 18.6149 20.4995 27.5797C8.59661 36.1449 4.83239 34.7174 4.32372 33.6324C3.86591 32.7189 3.00117 29.407 7.83356 20.7276C12.6659 12.0482 20.1435 5.88132 23.9585 4.22539C24.925 3.82568 25.7897 3.54018 26.6036 3.54018V0.0570068H26.5018Z" fill="#2AB794"/>
<path d="M108.508 18.2723V26.4378V34.5461H109.779H111V26.4378V18.2723H109.779H108.508Z" fill="#2AB794"/>
<path d="M63.2356 25.4671V23.2401H59.4714H55.3004V25.6955H60.2854L55.1477 32.2621L56.0633 34.5461H59.3188H63.4391V32.0908H57.9963L63.2356 25.4671Z" fill="#2AB794"/>
<path d="M46.246 18.2723L39.9384 34.5461H42.7361L44.2112 30.7203H47.4667H50.7222L52.1974 34.5461H54.9951L48.6875 18.2723H46.246ZM45.1269 28.2079L47.4667 22.0409L49.8066 28.2079H47.4667H45.1269Z" fill="#2AB794"/>
<path d="M98.1299 22.9547C94.9765 22.9547 92.9415 25.4671 92.9415 28.8361C92.9415 32.3193 94.9765 34.7746 98.0794 34.7746C100.012 34.7746 101.538 33.9181 102.504 32.4335L100.674 30.9488C100.114 31.8054 99.1987 32.3193 98.0794 32.3193C96.5532 32.3193 95.587 31.2343 95.3835 29.6355H97.9264H102.911V28.4935C102.911 25.0103 101.081 22.9547 98.0794 22.9547H98.1299ZM95.4852 27.6941C95.7392 26.0952 96.7054 25.1816 98.0281 25.1816C99.3004 25.1816 100.267 26.0382 100.47 27.6941H97.9777H95.4852Z" fill="#2AB794"/>
<path d="M104.387 34.5461H105.608H106.829V26.4378V18.2723H105.608H104.387V26.4378V34.5461Z" fill="#2AB794"/>
<path d="M87.4478 25.4671C88.5671 25.4671 89.5333 26.1523 89.9916 27.4085L92.1275 26.1523C91.263 24.1538 89.8898 23.0117 87.3974 23.0117C84.2431 23.0117 82.1577 25.4671 82.1577 28.8932C82.1577 32.3763 84.1927 34.8317 87.3461 34.8317C89.5846 34.8317 91.2126 33.6896 92.1275 31.7482L89.9916 30.492C89.4828 31.634 88.6175 32.3763 87.4478 32.3763C85.8198 32.3763 84.6501 30.8916 84.6501 28.9502C84.6501 27.0088 85.8198 25.5242 87.4478 25.5242V25.4671Z" fill="#2AB794"/>
<path d="M78.0887 24.8961H77.936V23.2402H75.4435V29.4641V34.5462H77.936V29.2929C77.936 27.2372 78.9025 25.6955 80.4285 25.6955C80.7846 25.6955 81.1915 25.7526 81.5476 25.8668V23.183C81.1407 23.0688 80.9372 23.0688 80.6829 23.0688C79.5129 23.0688 78.4956 23.8112 78.0887 24.8961Z" fill="#2AB794"/>
<path d="M69.2887 22.9547C66.1349 22.9547 64.1002 25.4671 64.1002 28.8361C64.1002 32.3193 66.1349 34.7746 69.2378 34.7746C71.1708 34.7746 72.6968 33.9181 73.6633 32.4335L71.832 30.9488C71.2725 31.8054 70.3569 32.3193 69.2378 32.3193C67.7118 32.3193 66.7453 31.2343 66.5419 29.6355H69.0343H74.0193V28.4935C74.0193 25.0103 72.1881 22.9547 69.187 22.9547H69.2887ZM66.6436 27.6941C66.8979 26.0952 67.8644 25.1816 69.187 25.1816C70.4586 25.1816 71.4251 26.0382 71.6286 27.6941H69.0852H66.5927H66.6436Z" fill="#2AB794"/>
</svg>
